# xmcd
#
# Track frame offsets:
#	150
#	16290
#	36172
#	51679
#	68429
#	83048
#	102993
#	121326
#	140352
#	158489
#	175144
#	188454
#	200835
#	222735
#	237531
#
# Disc length: 3392 seconds
# Revision: 4
# Processed by: cddbd v1.5.2PL0 Copyright (c) Steve Scherf et al.
# Submitted via: dBpowerAMP V12.0
#
DISCID=d30d3e0f
DTITLE=Keith Urban - Keith Urban
DYEAR=1999
DGENRE=Country
TTITLE0=Only You
TTITLE1=Got It Bad
TTITLE2=Blue Stranger
TTITLE3=Without You
TTITLE4=Arms of Mary
TTITLE5=Yesterday
TTITLE6=Don't Go
TTITLE7=Hold on to Your Dreams
TTITLE8=Lovin' on the Side
TTITLE9=Future Plans
TTITLE10=Love We Got Goin'
TTITLE11=Clutterbilly
TTITLE12=The River
TTITLE13=What Love Is That Way
TTITLE14=I Never Work on a Sunday
EXTD=
EXTT0=
EXTT1=
EXTT2=
EXTT3=
EXTT4=
EXTT5=
EXTT6=
EXTT7=
EXTT8=
EXTT9=
EXTT10=
EXTT11=
EXTT12=
EXTT13=
EXTT14=
PLAYORDER=
